<?xml version="1.0" encoding="utf-8"?>
<!-- Generator: Adobe Illustrator 25.0.0, SVG Export Plug-In . SVG Version: 6.00 Build 0)  -->
<svg version="1.1" id="Capa_1" xmlns="http://www.w3.org/2000/svg" xmlns:xlink="http://www.w3.org/1999/xlink" x="0px" y="0px"
	 viewBox="0 0 20 20" style="enable-background:new 0 0 20 20;" xml:space="preserve">
<style type="text/css">
	.st0{fill:#15151D;}
</style>
<g>
	<g>
		<g>
			<path class="st0" d="M10,5.3l-7,5.8c0,0,0,0,0,0c0,0,0,0,0,0V17c0,0.2,0.1,0.4,0.2,0.5c0.2,0.2,0.3,0.2,0.5,0.2h4.7v-4.7h3.1v4.7
				h4.7c0.2,0,0.4-0.1,0.5-0.2c0.2-0.2,0.2-0.3,0.2-0.5v-5.8c0,0,0-0.1,0-0.1L10,5.3z"/>
			<path class="st0" d="M19.7,9.8L17,7.6v-5c0-0.1,0-0.2-0.1-0.3c-0.1-0.1-0.2-0.1-0.3-0.1h-2.3c-0.1,0-0.2,0-0.3,0.1
				c-0.1,0.1-0.1,0.2-0.1,0.3V5l-3-2.5c-0.3-0.2-0.6-0.3-0.9-0.3c-0.4,0-0.7,0.1-0.9,0.3L0.3,9.8C0.3,9.9,0.2,10,0.2,10.1
				c0,0.1,0,0.2,0.1,0.3L1,11.2c0.1,0.1,0.1,0.1,0.3,0.1c0.1,0,0.2,0,0.3-0.1l8.4-7l8.4,7c0.1,0.1,0.1,0.1,0.3,0.1h0
				c0.1,0,0.2-0.1,0.3-0.1l0.8-0.9c0.1-0.1,0.1-0.2,0.1-0.3C19.8,10,19.7,9.9,19.7,9.8z"/>
		</g>
	</g>
</g>
</svg>
